External Loads File
version=1
nRows=54
nColumns=13
Range=5.000000e-03-10 seconds
endheader
time 	forceRightX 	forceRightY 	forceRightZ 	pointRightX 	pointRightY 	pointRightZ 	forceLeftX 	forceLeftY 	forceLeftZ 	pointLeftX 	pointLeftY 	pointLeftZ 		
2.505000 7.748307 -132.690362 -0.000000 0.162725 0.329530 -0.193696 -209.844491 781.383539 -0.000000 0.457901 0.327740 -0.446288
2.510000 6.590283 -129.544885 -0.000000 0.162747 0.334650 -0.193783 -203.840069 785.140310 -0.000000 0.458397 0.322756 -0.446203
2.515000 5.270374 -126.555491 -0.000000 0.163019 0.339830 -0.194059 -197.640565 788.231057 -0.000000 0.458790 0.317664 -0.446144
2.520000 3.877999 -123.670748 -0.000000 0.163331 0.344964 -0.194133 -191.939792 790.465296 -0.000000 0.459133 0.312633 -0.446148
2.525000 2.304065 -120.825626 -0.000000 0.163837 0.350195 -0.194124 -185.966349 792.081338 -0.000000 0.459213 0.307571 -0.446075
2.530000 0.675809 -117.949523 -0.000000 0.164484 0.355384 -0.194166 -180.370226 793.038161 -0.000000 0.459345 0.302565 -0.446299
2.535000 -1.110754 -114.997638 -0.000000 0.165303 0.360676 -0.194199 -174.284141 793.689609 -0.000000 0.459392 0.297447 -0.446480
2.540000 -2.917907 -111.954145 -0.000000 0.166200 0.365861 -0.194314 -168.461455 794.014840 -0.000000 0.458930 0.292378 -0.445959
2.545000 -4.790084 -108.832798 -0.000000 0.167373 0.371131 -0.194349 -162.394147 794.245335 -0.000000 0.458620 0.287264 -0.445898
2.550000 -6.660144 -105.667977 -0.000000 0.168669 0.376328 -0.194415 -156.463637 794.395580 -0.000000 0.458165 0.282144 -0.445860
2.555000 -8.572144 -102.496639 -0.000000 0.170054 0.381568 -0.194546 -150.448343 794.592530 -0.000000 0.457462 0.277077 -0.445838
2.560000 -10.552053 -99.363182 -0.000000 0.171659 0.386785 -0.194625 -144.328010 794.912262 -0.000000 0.456662 0.271972 -0.445807
2.565000 -12.576226 -96.321983 -0.000000 0.173440 0.391965 -0.194740 -138.467332 795.345969 -0.000000 0.455794 0.266923 -0.445757
2.570000 -14.704572 -93.412949 -0.000000 0.175394 0.397112 -0.194811 -132.662846 795.963804 -0.000000 0.454652 0.261926 -0.445735
2.575000 -17.058279 -90.653727 -0.000000 0.177513 0.402472 -0.194853 -126.261356 796.849778 -0.000000 0.453464 0.256843 -0.445683
2.580000 -19.506779 -88.094908 -0.000000 0.179800 0.407565 -0.194955 -120.603937 797.676776 -0.000000 0.452196 0.251808 -0.445635
2.585000 -22.061574 -85.749594 -0.000000 0.182233 0.412573 -0.195035 -115.393249 798.310840 -0.000000 0.450703 0.246982 -0.445571
2.590000 -24.738998 -83.605024 -0.000000 0.184820 0.417593 -0.195120 -109.878396 798.627153 -0.000000 0.449100 0.242110 -0.445526
2.595000 -27.419451 -81.672653 -0.000000 0.187599 0.422473 -0.195160 -104.493446 798.292199 -0.000000 0.447437 0.237299 -0.445456
2.600000 -30.092584 -79.930640 -0.000000 0.190447 0.427260 -0.195206 -98.837619 797.060815 -0.000000 0.445566 0.232491 -0.445473
2.605000 -32.811906 -78.323155 -0.000000 0.193485 0.432123 -0.195279 -92.218180 794.704813 -0.000000 0.443486 0.227676 -0.445547
2.610000 -35.464206 -76.848219 -0.000000 0.196650 0.436774 -0.195326 -85.908817 790.783063 -0.000000 0.441363 0.223104 -0.445483
2.615000 -38.145397 -75.413079 -0.000000 0.199939 0.441272 -0.195362 -79.065066 785.172687 -0.000000 0.438963 0.218626 -0.445435
2.620000 -40.867010 -73.967922 -0.000000 0.203340 0.445967 -0.195378 -71.467815 777.750780 -0.000000 0.436621 0.214153 -0.445404
2.625000 -43.519930 -72.542141 -0.000000 0.206885 0.450244 -0.195463 -64.010512 768.340839 -0.000000 0.434162 0.209758 -0.445367
2.630000 -46.051122 -71.153875 -0.000000 0.209969 0.454545 -0.196348 -57.155927 756.856779 -0.000000 0.431469 0.205689 -0.445279
2.635000 -48.824402 -69.550550 -0.000000 0.214704 0.458775 -0.195135 -47.190621 743.557169 -0.000000 0.428755 0.201482 -0.445266
2.640000 -51.332765 -68.049447 -0.000000 0.218073 0.462903 -0.195792 -39.655435 728.101172 -0.000000 0.425930 0.197479 -0.445253
2.645000 -53.857131 -66.405167 -0.000000 0.222017 0.466821 -0.195847 -31.487404 710.778388 -0.000000 0.422974 0.193738 -0.445190
2.650000 -56.449418 -64.479414 -0.000000 0.226543 0.470758 -0.195504 -22.079109 691.670166 -0.000000 0.419965 0.189893 -0.445155
2.655000 -58.902202 -62.346721 -0.000000 0.230776 0.474464 -0.195559 -13.662449 670.732906 -0.000000 0.416896 0.186304 -0.445139
2.660000 -61.257481 -59.877965 -0.000000 0.234721 0.478096 -0.195564 -5.638929 648.023701 -0.000000 0.413633 0.182811 -0.445114
2.665000 -63.538296 -56.955762 -0.000000 0.238946 0.481641 -0.195842 2.605051 623.581530 -0.000000 0.410327 0.179379 -0.445075
2.670000 -65.659561 -53.593380 -0.000000 0.243333 0.485044 -0.195917 10.562870 597.426730 -0.000000 0.406956 0.176178 -0.445052
2.675000 -67.590030 -49.775865 -0.000000 0.247755 0.488301 -0.196025 18.187895 569.582125 -0.000000 0.403378 0.173119 -0.445023
2.680000 -69.304466 -45.498107 -0.000000 0.252289 0.491422 -0.196121 25.322301 540.181071 -0.000000 0.399771 0.170037 -0.445028
2.685000 -70.782550 -40.773971 -0.000000 0.256868 0.494381 -0.196278 31.662231 509.553284 -0.000000 0.396052 0.167357 -0.444954
2.690000 -72.077881 -35.541171 -0.000000 0.261463 0.497151 -0.196450 37.513338 478.091791 -0.000000 0.392157 0.164740 -0.444907
2.695000 -73.236601 -29.792212 -0.000000 0.266143 0.499658 -0.196640 42.751683 446.197299 -0.000000 0.388224 0.162283 -0.444905
2.700000 -74.345148 -23.469775 -0.000000 0.270799 0.502040 -0.196418 47.491909 414.196674 -0.000000 0.384108 0.160040 -0.444841
2.705000 -75.494752 -16.513569 -0.000000 0.275582 0.504138 -0.196333 51.717370 382.366299 -0.000000 0.379962 0.157900 -0.444808
2.710000 -76.782048 -8.846636 -0.000000 0.280299 0.506156 -0.196326 55.344306 350.979108 -0.000000 0.375674 0.155971 -0.444646
2.715000 -78.302770 -0.290590 -0.000000 0.285158 0.507877 -0.196238 58.592095 320.284812 -0.000000 0.371089 0.154323 -0.444108
2.720000 -80.117956 9.172647 -0.000000 0.290030 0.509418 -0.196177 60.966990 290.669129 -0.000000 0.366692 0.152726 -0.444062
2.725000 -82.246425 19.715812 -0.000000 0.294970 0.510738 -0.196098 62.758149 262.381438 -0.000000 0.362136 0.151436 -0.443933
2.730000 -84.656829 31.334711 -0.000000 0.299837 0.511837 -0.196033 63.795037 235.758094 -0.000000 0.357585 0.150292 -0.443784
2.735000 -87.254885 44.049044 -0.000000 0.304635 0.512844 -0.195975 64.245218 211.016872 -0.000000 0.352911 0.149313 -0.443631
2.740000 -89.951795 57.761000 -0.000000 0.309332 0.513563 -0.195985 64.110197 188.326425 -0.000000 0.348151 0.148609 -0.443519
2.745000 -92.644836 72.424498 -0.000000 0.314047 0.514044 -0.196021 63.509977 167.738877 -0.000000 0.343346 0.148042 -0.443312
2.750000 -95.306679 87.969133 -0.000000 0.318470 0.514315 -0.196160 62.418207 149.359702 -0.000000 0.338427 0.147546 -0.443050
2.755000 -97.772820 104.562598 -0.000000 0.323077 0.514181 -0.196323 61.131840 133.218860 -0.000000 0.333476 0.147209 -0.442625
2.760000 -100.062476 122.245939 -0.000000 0.327414 0.513993 -0.196310 59.690957 119.430398 -0.000000 0.328393 0.147027 -0.442151
2.765000 -102.181998 141.166451 -0.000000 0.331577 0.513487 -0.196101 58.272129 107.921993 -0.000000 0.323301 0.147030 -0.441884
2.770000 -104.060987 161.549454 -0.000000 0.335708 0.512565 -0.196146 57.096516 98.435827 -0.000000 0.318119 0.147326 -0.441761
